<svg viewBox="0 0 680 360" xmlns="http://www.w3.org/2000/svg" role="img" aria-labelledby="t-gen-20260625">
<title id="t-gen-20260625">the loop, and someone you love — animated</title>
<rect width="680" height="360" fill="#F4EFE3"/>
<text x="40" y="56" font-family="var(--font-serif), Georgia, serif" font-size="20" fill="#1c1b1a">the loop, and someone you love</text>
<text x="640" y="56" text-anchor="end" font-family="monospace" font-size="12" fill="#9a958a">reroute · means</text>
<line x1="40" y1="72" x2="640" y2="72" stroke="#d8d2c4" stroke-width="1"/>

<line x1="40" y1="240" x2="640" y2="240" stroke="#1c1b1a" stroke-width="3"/>
<path d="M320,240 C 360,256 400,278 440,300" stroke="#9a958a" stroke-width="2.5" fill="none" stroke-dasharray="6 6"/>

<g transform="translate(566,240) scale(1)" fill="#1c1b1a"><circle cx="0" cy="-24" r="5"/><path d="M0,-19 C-5,-19 -6,-15 -6,-2 L6,-2 C6,-15 5,-19 0,-19 Z"/></g><g transform="translate(580,240) scale(1)" fill="#1c1b1a"><circle cx="0" cy="-24" r="5"/><path d="M0,-19 C-5,-19 -6,-15 -6,-2 L6,-2 C6,-15 5,-19 0,-19 Z"/></g><g transform="translate(594,240) scale(1)" fill="#1c1b1a"><circle cx="0" cy="-24" r="5"/><path d="M0,-19 C-5,-19 -6,-15 -6,-2 L6,-2 C6,-15 5,-19 0,-19 Z"/></g><g transform="translate(608,240) scale(1)" fill="#1c1b1a"><circle cx="0" cy="-24" r="5"/><path d="M0,-19 C-5,-19 -6,-15 -6,-2 L6,-2 C6,-15 5,-19 0,-19 Z"/></g><g transform="translate(622,240) scale(1)" fill="#1c1b1a"><circle cx="0" cy="-24" r="5"/><path d="M0,-19 C-5,-19 -6,-15 -6,-2 L6,-2 C6,-15 5,-19 0,-19 Z"/></g>
<text x="556" y="214" font-family="var(--font-serif), Georgia, serif" font-size="26" fill="#1c1b1a">6</text>
<g opacity="0"><text x="556" y="290" font-family="monospace" font-size="12" fill="#3B6D11">saved</text><animate attributeName="opacity" values="0;0;1;1;0" keyTimes="0;0.52;0.57;0.92;1" dur="6s" repeatCount="indefinite"/></g>

<g transform="translate(440,300) scale(1)" fill="#1c1b1a"><circle cx="0" cy="-24" r="5"/><path d="M0,-19 C-5,-19 -6,-15 -6,-2 L6,-2 C6,-15 5,-19 0,-19 Z"/></g>
<g opacity="0"><line x1="426" y1="286" x2="454" y2="314" stroke="#D85A30" stroke-width="3"/><line x1="454" y1="286" x2="426" y2="314" stroke="#D85A30" stroke-width="3"/><animate attributeName="opacity" values="0;0;1;1;0" keyTimes="0;0.5;0.55;0.95;1" dur="6s" repeatCount="indefinite"/></g>
<text x="470" y="306" font-family="var(--font-serif), Georgia, serif" font-size="22" fill="#D85A30" opacity="0">1<animate attributeName="opacity" values="0;0;1;1;0" keyTimes="0;0.52;0.57;0.95;1" dur="6s" repeatCount="indefinite"/></text>

<g><animateTransform attributeName="transform" type="translate" values="-150,0;218,0;218,0;218,0;-150,0" keyTimes="0;0.5;0.55;0.9;1" dur="6s" repeatCount="indefinite"/>
<rect x="70" y="218" width="50" height="26" rx="3" fill="#1c1b1a"/>
<rect x="78" y="224" width="13" height="9" rx="1.5" fill="#F4EFE3"/>
<rect x="98" y="224" width="13" height="9" rx="1.5" fill="#F4EFE3"/>
<circle cx="84" cy="244" r="5" fill="#1c1b1a"/><circle cx="106" cy="244" r="5" fill="#1c1b1a"/>
<path d="M120,222 L134,231 L120,240 Z" fill="#D85A30"/></g>

<g opacity="0"><rect x="300" y="150" width="40" height="92" fill="#D85A30" opacity="0.18"/><text x="320" y="140" text-anchor="middle" font-family="monospace" font-size="11.5" fill="#D85A30">throw the switch (onto the loop)</text><animate attributeName="opacity" values="0;0;1;1;0" keyTimes="0;0.48;0.53;0.9;1" dur="6s" repeatCount="indefinite"/></g>

<rect x="40" y="300" width="200" height="34" rx="4" fill="#ece6d8"/>
<text x="54" y="322" font-family="monospace" font-size="13" fill="#1c1b1a">deaths: </text>
<text x="112" y="322" font-family="monospace" font-size="13" fill="#D85A30" opacity="0">1<animate attributeName="opacity" values="0;0;1;1;0" keyTimes="0;0.52;0.57;0.95;1" dur="6s" repeatCount="indefinite"/></text>
<text x="40" y="350" font-family="monospace" font-size="11.5" fill="#9a958a">deontology refuses · used as a means · E[deaths]=1.00</text>
</svg>