<svg viewBox="0 0 680 740" xmlns="http://www.w3.org/2000/svg" role="img" aria-labelledby="t-gen-20260709">
<title id="t-gen-20260709">the bridge, and the saboteur — risograph poster</title>
<defs>
<pattern id="hp" width="8" height="8" patternUnits="userSpaceOnUse" patternTransform="rotate(15)"><circle cx="4" cy="4" r="2.2" fill="#FF2D7E"/></pattern>
<pattern id="hb" width="11" height="11" patternUnits="userSpaceOnUse" patternTransform="rotate(-20)"><circle cx="5.5" cy="5.5" r="2" fill="#0B4FCB"/></pattern>
<filter id="rough" x="-6%" y="-6%" width="112%" height="112%"><feTurbulence type="fractalNoise" baseFrequency="0.012 0.02" numOctaves="2" seed="11" result="t"/><feDisplacementMap in="SourceGraphic" in2="t" scale="7" xChannelSelector="R" yChannelSelector="G"/></filter>
<filter id="grain" x="0" y="0" width="100%" height="100%"><feTurbulence type="fractalNoise" baseFrequency="0.8" numOctaves="2" seed="3" result="n"/><feColorMatrix in="n" type="matrix" values="0 0 0 0 0 0 0 0 0 0 0 0 0 0 0 0 0 0 -1.4 1.1" result="a"/><feComposite in="SourceGraphic" in2="a" operator="in"/></filter>
<g id="p"><circle cx="0" cy="-40" r="7.5"/><path d="M-8,-33 Q0,-37 8,-33 L7,-12 L-7,-12 Z"/><rect x="-7" y="-12" width="6" height="13" rx="2.5"/><rect x="1" y="-12" width="6" height="13" rx="2.5"/></g>
</defs>
<rect width="680" height="740" fill="#F2E6C9"/>
<g transform="translate(626,64)" fill="#0B4FCB" opacity="0.13"><path d="M0,0 L-690,-60 L-690,-20 Z"/><path d="M0,0 L-690,40 L-690,90 Z"/><path d="M0,0 L-660,150 L-660,205 Z"/><path d="M0,0 L-560,280 L-560,340 Z"/><path d="M0,0 L-400,420 L-400,485 Z"/><path d="M0,0 L-180,540 L-180,610 Z"/><path d="M0,0 L-690,-150 L-690,-110 Z"/></g>
<g filter="url(#rough)"><path d="M69,701 L619,210 L601,189 L51,679 Z" fill="#161616"/><g stroke="#161616" stroke-width="8" opacity="0.9"><line x1="120" y1="678" x2="150" y2="652"/><line x1="210" y1="598" x2="240" y2="572"/><line x1="300" y1="518" x2="330" y2="492"/><line x1="390" y1="438" x2="420" y2="412"/><line x1="480" y1="358" x2="510" y2="332"/><line x1="555" y1="290" x2="585" y2="264"/></g></g>
<g transform="translate(150,628) rotate(-42)"><g transform="translate(6,5)" fill="#0B4FCB" opacity="0.85"><rect x="-30" y="-20" width="60" height="40" rx="7"/></g><rect x="-30" y="-20" width="60" height="40" rx="7" fill="#161616"/><rect x="6" y="-13" width="18" height="14" rx="2" fill="url(#hp)"/><circle cx="-14" cy="20" r="6" fill="#161616"/><circle cx="16" cy="20" r="6" fill="#161616"/><path d="M30,-22 L48,0 L30,22 Z" fill="#161616"/></g>
<text x="466" y="246" font-family="sans-serif" font-weight="900" font-size="150" fill="#FF2D7E" opacity="0.92" letter-spacing="-6">3</text>
<g transform="translate(8,6)" opacity="0.8"><use href="#p" transform="translate(470,330) scale(1.05)" fill="#0B4FCB"/><use href="#p" transform="translate(494,309) scale(1.08)" fill="#0B4FCB"/><use href="#p" transform="translate(518,288) scale(1.11)" fill="#0B4FCB"/></g><g><use href="#p" transform="translate(470,330) scale(1.05)" fill="#161616"/><use href="#p" transform="translate(494,309) scale(1.08)" fill="#161616"/><use href="#p" transform="translate(518,288) scale(1.11)" fill="#161616"/></g><g opacity="0.9"><use href="#p" transform="translate(470,330) scale(1.05)" fill="url(#hp)"/><use href="#p" transform="translate(494,309) scale(1.08)" fill="url(#hp)"/><use href="#p" transform="translate(518,288) scale(1.11)" fill="url(#hp)"/></g>
<g stroke="#161616" stroke-width="6" filter="url(#rough)"><line x1="208" y1="372" x2="470" y2="372"/><line x1="220" y1="372" x2="220" y2="404"/><line x1="300" y1="372" x2="300" y2="430"/><line x1="380" y1="372" x2="380" y2="430"/><line x1="455" y1="372" x2="455" y2="408"/></g>
<g transform="translate(300,372)"><g transform="translate(7,5)" fill="#0B4FCB" opacity="0.8"><circle cx="0" cy="-78" r="15"/><path d="M-17,-64 Q0,-70 17,-64 L15,-22 L-15,-22 Z"/><rect x="-15" y="-22" width="12" height="24" rx="4"/><rect x="3" y="-22" width="12" height="24" rx="4"/></g><circle cx="0" cy="-78" r="15" fill="#161616"/><path d="M-17,-64 Q0,-70 17,-64 L15,-22 L-15,-22 Z" fill="#161616"/><rect x="-15" y="-22" width="12" height="24" rx="4" fill="#161616"/><rect x="3" y="-22" width="12" height="24" rx="4" fill="#161616"/></g>
<text x="246" y="300" font-family="sans-serif" font-weight="900" font-size="52" fill="#FF2D7E">1</text>
<path d="M250,300 C 300,330 350,360 402,404" stroke="#FF2D7E" stroke-width="20" fill="none"/>
<path d="M392,388 L420,420 L378,424 Z" fill="#FF2D7E"/>
<text x="40" y="96" font-family="sans-serif" font-weight="900" font-size="44" fill="#161616" letter-spacing="-1">THE BRIDGE, AND THE SABOTEUR</text>
<text x="42" y="120" font-family="monospace" font-size="13" fill="#0B4FCB">switchyard · interpose · means</text>
<g transform="translate(60,628) rotate(-5)"><rect x="0" y="0" width="332" height="62" fill="none" stroke="#FF2D7E" stroke-width="4"/><text x="16" y="28" font-family="sans-serif" font-weight="900" font-size="21" fill="#FF2D7E">拒绝 · A PERSON IS NOT A TOOL</text><text x="16" y="50" font-family="monospace" font-size="12" fill="#161616">deontology forbids the act · E[deaths]=1.00</text></g>
<rect width="680" height="740" fill="url(#hb)" opacity="0.05"/>
<rect width="680" height="740" fill="#161616" opacity="0.04" filter="url(#grain)"/>
</svg>