<svg viewBox="0 0 680 540" xmlns="http://www.w3.org/2000/svg" role="img" aria-labelledby="t-gen-20260719">
<title id="t-gen-20260719">the bridge, and someone you love — ink wash</title>
<defs>
<filter id="bleed" x="-30%" y="-30%" width="160%" height="160%"><feTurbulence type="fractalNoise" baseFrequency="0.013 0.018" numOctaves="3" seed="7" result="n"/><feDisplacementMap in="SourceGraphic" in2="n" scale="11" xChannelSelector="R" yChannelSelector="G"/></filter>
<filter id="dry" x="-20%" y="-20%" width="140%" height="140%"><feTurbulence type="fractalNoise" baseFrequency="0.9 0.08" numOctaves="2" seed="4" result="n"/><feDisplacementMap in="SourceGraphic" in2="n" scale="4"/></filter>
<filter id="paper" x="0" y="0" width="100%" height="100%"><feTurbulence type="fractalNoise" baseFrequency="0.7" numOctaves="2" seed="2" result="f"/><feColorMatrix in="f" type="matrix" values="0 0 0 0 0 0 0 0 0 0 0 0 0 0 0 0 0 0 -1.2 1.05" result="a"/><feComposite in="SourceGraphic" in2="a" operator="in"/></filter>
<radialGradient id="pool5" cx="50%" cy="48%" r="60%"><stop offset="0%" stop-color="#0d0d0d" stop-opacity="0.92"/><stop offset="55%" stop-color="#1f1f1f" stop-opacity="0.7"/><stop offset="100%" stop-color="#2a2a2a" stop-opacity="0"/></radialGradient>
<radialGradient id="pool1" cx="50%" cy="50%" r="55%"><stop offset="0%" stop-color="#1a1a1a" stop-opacity="0.75"/><stop offset="60%" stop-color="#2a2a2a" stop-opacity="0.4"/><stop offset="100%" stop-color="#2a2a2a" stop-opacity="0"/></radialGradient>
</defs>
<rect width="680" height="540" fill="#F6F1E4"/>
<text x="525" y="430" font-family="serif" font-size="230" fill="#141414" opacity="0.06" text-anchor="middle">二</text>
<text x="345" y="250" font-family="serif" font-size="90" fill="#141414" opacity="0.07" text-anchor="middle">一</text>
<g filter="url(#dry)" opacity="0.82"><path d="M52,392 C 220,376 380,388 470,374 C 540,364 590,366 626,360" stroke="#141414" stroke-width="9" fill="none" stroke-linecap="round"/><path d="M58,400 C 230,388 360,396 520,382" stroke="#141414" stroke-width="4" fill="none" stroke-linecap="round" opacity="0.5"/></g>
<ellipse cx="525" cy="360" rx="68" ry="50" fill="url(#pool5)" filter="url(#bleed)"/>
<g filter="url(#bleed)" fill="#141414"><circle cx="516.5" cy="306" r="5.5"/><path d="M509.5,372 C 507.5,339 512.5,312 516.5,312 C 520.5,312 525.5,339 523.5,372 Z"/><circle cx="533.5" cy="298" r="5.5"/><path d="M526.5,372 C 524.5,334.6 529.5,304 533.5,304 C 537.5,304 542.5,334.6 540.5,372 Z"/></g>
<g filter="url(#dry)" opacity="0.7"><path d="M268,300 C 320,288 380,290 426,300" stroke="#141414" stroke-width="3.5" fill="none"/><line x1="300" y1="300" x2="298" y2="338" stroke="#141414" stroke-width="2.5"/><line x1="392" y1="300" x2="394" y2="346" stroke="#141414" stroke-width="2.5"/></g>
<ellipse cx="345" cy="292" rx="22" ry="18.7" fill="url(#pool1)" filter="url(#bleed)"/>
<g filter="url(#bleed)" fill="#141414"><circle cx="345" cy="276" r="8"/><path d="M334,288 C 333,300 357,300 356,288 C 353,280 337,280 334,288 Z"/></g>
<g filter="url(#dry)" opacity="0.85"><path d="M286,286 C 304,284 320,286 330,290" stroke="#141414" stroke-width="9" fill="none" stroke-linecap="round"/><path d="M330,289 l11,-4 M331,293 l12,-1 M330,297 l11,3" stroke="#141414" stroke-width="2.5" fill="none" stroke-linecap="round"/></g>
<g opacity="0.4"><circle cx="356" cy="318" r="1.6" fill="#141414"/><circle cx="366" cy="334" r="1.6" fill="#141414"/><circle cx="377" cy="350" r="1.8" fill="#141414"/><circle cx="388" cy="366" r="2" fill="#141414"/></g>
<g filter="url(#bleed)"><path d="M118,344 C 116,330 124,326 150,326 L188,326 C 196,326 198,332 196,344 C 198,360 196,370 188,372 L132,372 C 122,372 120,360 118,344 Z" fill="#161616"/><path d="M196,332 L214,350 L196,366 Z" fill="#161616"/><rect x="128" y="334" width="20" height="13" rx="2" fill="#F6F1E4" opacity="0.85"/></g>
<circle cx="140" cy="384" r="9" fill="#161616" filter="url(#bleed)"/><circle cx="178" cy="384" r="9" fill="#161616" filter="url(#bleed)"/>
<g transform="translate(66,402)"><rect x="0" y="0" width="56" height="56" rx="3" fill="#B23A2E"/><text x="28" y="40" font-family="serif" font-size="34" fill="#F6F1E4" text-anchor="middle">推</text></g>
<text x="138" y="424" font-family="serif" font-size="22" fill="#141414">the bridge, and someone you love</text>
<text x="138" y="448" font-family="serif" font-size="15" fill="#6b6b6b">rail · 用一人之身，停下电车</text>
<text x="66" y="500" font-family="monospace" font-size="12" fill="#8a8475">ink weight = expected deaths · 二 ▸ 一 · means</text>
<rect width="680" height="540" fill="#1a1a1a" opacity="0.05" filter="url(#paper)"/>
</svg>